<svg width="28" height="43" viewBox="0 0 28 43" fill="none" xmlns="http://www.w3.org/2000/svg">
<path d="M13.3926 35.4727H8.62115V37.6055H7.11725V35.4727H2.09967V34.2559H13.3926V35.4727ZM12.1485 39.9707H3.46686V36.5664H4.97076V38.7402H12.1485V39.9707ZM5.08014 29.6484H10.4122V28.2539H11.9161V33.2852H3.57623V28.2539H5.08014V29.6484ZM10.4122 32.082V30.7832H5.08014V32.082H10.4122ZM18.6973 29.8125C18.6973 30.3503 18.809 30.8652 19.0323 31.3574C19.2556 31.8451 19.5837 32.2803 20.0167 32.6631C20.4542 33.0413 20.9805 33.3307 21.5958 33.5312L20.7755 34.748C20.1192 34.5156 19.5518 34.1761 19.0733 33.7295C18.5948 33.2829 18.2211 32.7565 17.9522 32.1504C17.6742 32.8112 17.2823 33.3854 16.7764 33.873C16.2751 34.3607 15.6758 34.7298 14.9786 34.9805L14.1583 33.7637C14.81 33.5449 15.3614 33.2327 15.8126 32.8271C16.2637 32.417 16.601 31.9453 16.8243 31.4121C17.0521 30.8789 17.1661 30.3138 17.1661 29.7168V28.5H18.6973V29.8125ZM24.5626 40.2168H23.045V37.0039H16.1407V35.8008H24.5626V40.2168ZM24.5626 35.1992H23.045V31.5078H20.584V30.2637H23.045V27.8574H24.5626V35.1992Z" fill="#FD9238"/>
<path d="M15.459 14.0391C15.2441 14.0391 15.1172 13.9284 15.0781 13.707C14.9674 12.9909 14.8438 12.4082 14.707 11.959C14.5768 11.5098 14.388 11.1582 14.1406 10.9043C13.8932 10.6439 13.5482 10.4486 13.1055 10.3184C12.6693 10.1816 12.0898 10.0677 11.3672 9.97656C11.1328 9.9375 11.0156 9.81055 11.0156 9.5957C11.0156 9.37435 11.1328 9.2474 11.3672 9.21484C11.9466 9.13672 12.4316 9.04883 12.8223 8.95117C13.2129 8.84701 13.5352 8.71354 13.7891 8.55078C14.043 8.38802 14.2448 8.17643 14.3945 7.91602C14.5508 7.6556 14.6777 7.33008 14.7754 6.93945C14.873 6.54232 14.974 6.06055 15.0781 5.49414C15.1172 5.26628 15.2441 5.15234 15.459 5.15234C15.6738 5.15234 15.8008 5.26953 15.8398 5.50391C15.931 6.0638 16.0254 6.53906 16.123 6.92969C16.2207 7.32031 16.3477 7.64583 16.5039 7.90625C16.6602 8.16667 16.8652 8.38151 17.1191 8.55078C17.373 8.71354 17.6986 8.84701 18.0957 8.95117C18.4928 9.04883 18.9779 9.13672 19.5508 9.21484C19.7852 9.2474 19.9023 9.37435 19.9023 9.5957C19.9023 9.82357 19.7852 9.95052 19.5508 9.97656C18.9648 10.0547 18.4766 10.1458 18.0859 10.25C17.6953 10.3477 17.373 10.4779 17.1191 10.6406C16.8717 10.8034 16.6699 11.015 16.5137 11.2754C16.3639 11.5358 16.237 11.8646 16.1328 12.2617C16.0352 12.6589 15.9375 13.1406 15.8398 13.707C15.7943 13.9284 15.6673 14.0391 15.459 14.0391ZM11.5527 15.6211C11.403 15.6211 11.3086 15.5332 11.2695 15.3574C11.1849 14.8952 11.11 14.5599 11.0449 14.3516C10.9798 14.1432 10.8464 14 10.6445 13.9219C10.4427 13.8438 10.0944 13.7656 9.59961 13.6875C9.42383 13.6615 9.33594 13.5671 9.33594 13.4043C9.33594 13.2415 9.41406 13.1471 9.57031 13.1211C10.0781 13.0365 10.4362 12.9551 10.6445 12.877C10.8529 12.7923 10.9863 12.6458 11.0449 12.4375C11.11 12.2292 11.1849 11.9004 11.2695 11.4512C11.3086 11.2754 11.403 11.1875 11.5527 11.1875C11.709 11.1875 11.8034 11.2754 11.8359 11.4512C11.9141 11.9069 11.9857 12.2422 12.0508 12.457C12.1224 12.6654 12.2591 12.8086 12.4609 12.8867C12.6693 12.9648 13.0306 13.043 13.5449 13.1211C13.6947 13.1471 13.7695 13.2415 13.7695 13.4043C13.7695 13.5605 13.6947 13.6549 13.5449 13.6875C13.0306 13.7721 12.6693 13.8535 12.4609 13.9316C12.2591 14.0098 12.1257 14.153 12.0605 14.3613C11.9954 14.5697 11.9206 14.9082 11.8359 15.377C11.8034 15.5397 11.709 15.6211 11.5527 15.6211ZM5.32227 18.6875C4.43685 18.6875 3.74349 18.4368 3.24219 17.9355C2.74089 17.4342 2.49023 16.7409 2.49023 15.8555V4.54688C2.49023 3.66146 2.74089 2.9681 3.24219 2.4668C3.74349 1.96549 4.43685 1.71484 5.32227 1.71484H24.668C25.5534 1.71484 26.2467 1.96549 26.748 2.4668C27.2493 2.9681 27.5 3.66146 27.5 4.54688V15.8555C27.5 16.7409 27.2493 17.4342 26.748 17.9355C26.2467 18.4368 25.5534 18.6875 24.668 18.6875H5.32227ZM5.48828 16.5977H24.502C24.7884 16.5977 25.0098 16.5195 25.166 16.3633C25.3288 16.207 25.4102 15.9824 25.4102 15.6895V4.71289C25.4102 4.41992 25.3288 4.19531 25.166 4.03906C25.0098 3.88281 24.7884 3.80469 24.502 3.80469H5.48828C5.20182 3.80469 4.97721 3.88281 4.81445 4.03906C4.6582 4.19531 4.58008 4.41992 4.58008 4.71289V15.6895C4.58008 15.9824 4.6582 16.207 4.81445 16.3633C4.97721 16.5195 5.20182 16.5977 5.48828 16.5977ZM9.94141 22.1836C9.67448 22.1836 9.44661 22.0859 9.25781 21.8906C9.06901 21.7018 8.97461 21.4805 8.97461 21.2266C8.97461 20.9661 9.06901 20.7415 9.25781 20.5527C9.44661 20.3639 9.67448 20.2695 9.94141 20.2695H20.0586C20.319 20.2695 20.5436 20.3639 20.7324 20.5527C20.9212 20.7415 21.0156 20.9661 21.0156 21.2266C21.0156 21.4805 20.9212 21.7018 20.7324 21.8906C20.5436 22.0859 20.319 22.1836 20.0586 22.1836H9.94141Z" fill="#FD9238"/>
</svg>
